<svg width="54" height="50" viewBox="0 0 54 50" fill="none" xmlns="http://www.w3.org/2000/svg">
<path d="M49.6671 26.3195H32.1041C31.8556 26.3195 31.6172 26.4183 31.4415 26.594C31.2657 26.7698 31.167 27.0081 31.167 27.2567V30.067C31.167 32.0543 31.9564 33.9603 33.3617 35.3656C34.7669 36.771 36.6728 37.5606 38.6602 37.5609H48.3799C49.8704 37.5606 51.2999 36.9683 52.3538 35.9143C53.4077 34.8602 53.9998 33.4307 53.9998 31.9402V29.4809C53.9998 28.0768 52.5946 26.3205 49.6671 26.3205V26.3195Z" fill="black"/>
<path d="M24.8981 49.7962C35.8193 49.7962 41.874 49.7962 45.8351 45.8351C49.7962 41.874 49.7962 35.8193 49.7962 24.8981C49.7962 13.9769 49.7962 7.92212 45.8351 3.96106C41.874 0 35.8193 0 24.8981 0C13.9769 0 7.92212 0 3.96106 3.96106C0 7.92212 0 13.9769 0 24.8981C0 35.8193 0 41.874 3.96106 45.8351C7.92212 49.7962 13.9769 49.7962 24.8981 49.7962Z" fill="url(#paint0_linear_89_44)"/>
<path d="M41.0823 15.6745C39.2494 12.4573 36.5015 9.85768 33.1877 8.2059C29.8739 6.55411 26.1438 5.92477 22.4715 6.39783C18.7991 6.8709 15.3504 8.42502 12.5633 10.8627C9.77633 13.3004 7.77693 16.5116 6.8192 20.0883C6.1741 22.4735 6.01198 24.9636 6.34237 27.4123C6.67275 29.861 7.48898 32.2191 8.74314 34.3481C8.77143 34.4047 8.79973 34.4612 8.85631 34.5178L17.6272 49.7396L24.842 49.7962C29.6802 49.7962 33.5846 49.7962 36.7818 49.4567C40.7428 49.0323 43.6004 48.042 45.8073 45.8351C49.0045 42.638 49.6269 38.0262 49.7401 30.6134L41.0823 15.6745Z" fill="url(#paint1_linear_89_44)"/>
<path d="M38.0337 11.7243C36.3044 9.98903 34.2496 8.61223 31.9871 7.6728C29.7246 6.73337 27.2989 6.24979 24.8491 6.24979C22.3993 6.24979 19.9736 6.73337 17.711 7.6728C15.4485 8.61223 13.3937 9.98903 11.6644 11.7243C8.17195 15.2291 6.21094 19.9752 6.21094 24.9231C6.21094 29.8709 8.17195 34.6171 11.6644 38.1219C13.3937 39.8571 15.4485 41.2339 17.711 42.1733C19.9736 43.1128 22.3993 43.5963 24.8491 43.5963C27.2989 43.5963 29.7246 43.1128 31.9871 42.1733C34.2496 41.2339 36.3044 39.8571 38.0337 38.1219C41.5262 34.6171 43.4872 29.8709 43.4872 24.9231C43.4872 19.9752 41.5262 15.2291 38.0337 11.7243Z" fill="white"/>
<path fill-rule="evenodd" clip-rule="evenodd" d="M37.9549 19.7644C38.6014 20.1382 38.9999 20.8262 38.9999 21.5685V25.2202C38.9999 25.9633 38.6006 26.6474 37.953 27.0137L34.7477 28.8265C34.1075 29.1885 33.3208 29.1856 32.6793 28.8188L31.6148 28.2102L30.1092 27.3494L29.4364 26.9648C28.785 26.5923 28.3826 25.9015 28.3826 25.1556V21.5145C28.3826 20.7694 28.7841 20.0837 29.4345 19.7182L32.6773 17.8957C33.3199 17.5345 34.1085 17.5404 34.7497 17.9111L37.9549 19.7644Z" fill="url(#paint2_linear_89_44)"/>
<path fill-rule="evenodd" clip-rule="evenodd" d="M24.532 13.572C25.0079 13.8472 25.3013 14.3536 25.3013 14.9V17.2777V17.5881C25.3013 18.1351 25.0073 18.6387 24.5305 18.9084L24.3185 19.0283L22.1711 20.2428C21.6998 20.5093 21.1207 20.5072 20.6485 20.2372L18.2613 18.8724C17.7817 18.5982 17.4855 18.0897 17.4855 17.5406V14.8602C17.4855 14.3117 17.7811 13.807 18.2599 13.5379L20.647 12.1963C21.12 11.9305 21.7005 11.9348 22.1725 12.2077L24.532 13.572Z" fill="url(#paint3_linear_89_44)"/>
<path d="M28.3826 21.5145C28.3826 20.7694 28.7841 20.0837 29.4345 19.7182L25.3013 17.2777V17.5881C25.3013 18.1351 25.0073 18.6387 24.5305 18.9084L24.3185 19.0283L28.3826 21.5145Z" fill="url(#paint4_linear_89_44)"/>
<path fill-rule="evenodd" clip-rule="evenodd" d="M28.5301 32.0122C28.945 32.2521 29.2007 32.6935 29.2007 33.1698V35.5129C29.2007 35.9898 28.9444 36.4288 28.5289 36.6638L26.4722 37.827C26.0614 38.0593 25.5566 38.0574 25.145 37.8221L23.0642 36.6324C22.6461 36.3934 22.3879 35.9502 22.3879 35.4715V33.1352C22.3879 32.657 22.6456 32.2171 23.0629 31.9825L25.1437 30.8131C25.556 30.5814 26.062 30.5852 26.4734 30.823L26.8664 31.0503L28.2562 31.8538L28.5301 32.0122Z" fill="url(#paint5_linear_89_44)"/>
<path d="M30.1092 27.3494L26.8664 31.0503L28.2562 31.8538L31.6148 28.2102L30.1092 27.3494Z" fill="url(#paint6_linear_89_44)"/>
<path fill-rule="evenodd" clip-rule="evenodd" d="M24.7773 23.9895C25.1447 24.2019 25.3711 24.5928 25.3711 25.0145V27.0893C25.3711 27.5115 25.1442 27.9002 24.7762 28.1083L22.9551 29.1383C22.5913 29.344 22.1444 29.3424 21.7798 29.134L19.9373 28.0806C19.5672 27.8689 19.3386 27.4764 19.3386 27.0526V24.9838C19.3386 24.5605 19.5667 24.1709 19.9362 23.9632L21.7787 22.9277C22.1438 22.7225 22.5919 22.7259 22.9562 22.9365L24.7773 23.9895Z" fill="url(#paint7_linear_89_44)"/>
<path fill-rule="evenodd" clip-rule="evenodd" d="M17.5412 28.3987C17.7947 28.5453 17.951 28.8151 17.951 29.1061V30.5381C17.951 30.8295 17.7943 31.0977 17.5404 31.2414L16.2835 31.9522C16.0325 32.0942 15.724 32.0931 15.4724 31.9492L14.2008 31.2222C13.9453 31.0761 13.7876 30.8053 13.7876 30.5128L13.7876 29.085C13.7876 28.7928 13.945 28.5239 14.2 28.3806L15.4716 27.6659C15.7236 27.5243 16.0329 27.5266 16.2843 27.672L17.5412 28.3987Z" fill="url(#paint8_linear_89_44)"/>
<path fill-rule="evenodd" clip-rule="evenodd" d="M14.0718 20.8402C14.2792 20.9601 14.4071 21.1809 14.4071 21.4191V22.5909C14.4071 22.8294 14.2789 23.0489 14.0711 23.1665L13.0426 23.7482C12.8371 23.8644 12.5847 23.8634 12.3788 23.7457L11.3382 23.1508C11.1291 23.0312 11 22.8096 11 22.5702L11 21.4018C11 21.1627 11.1288 20.9426 11.3375 20.8253L12.3782 20.2405C12.5844 20.1246 12.8374 20.1265 13.0432 20.2455L14.0718 20.8402Z" fill="url(#paint9_linear_89_44)"/>
<path d="M53.063 30.4158H36.92C36.0113 30.4156 35.1115 30.5946 34.2719 30.9424C33.4323 31.2903 32.6695 31.8002 32.0269 32.443C31.3843 33.0858 30.8745 33.849 30.5268 34.689C30.179 35.5289 30 36.4292 30 37.3384V40.7241C30.0003 40.9726 30.0991 41.2108 30.2748 41.3864C30.4505 41.562 30.6887 41.6606 30.937 41.6606H47.08C47.9887 41.6608 48.8885 41.4818 49.7281 41.134C50.5676 40.7861 51.3305 40.2762 51.9731 39.6334C52.6157 38.9906 53.1254 38.2274 53.4732 37.3874C53.821 36.5475 54 35.6472 54 34.738V29.4783C54 29.7269 53.9012 29.9654 53.7255 30.1412C53.5498 30.317 53.3115 30.4158 53.063 30.4158Z" fill="url(#paint10_linear_89_44)"/>
<path d="M37.2218 35.9731C37.3902 35.8816 37.5295 35.7449 37.6241 35.5784C37.7186 35.4119 37.7646 35.2222 37.7568 35.0309C37.7568 34.1977 37.1768 33.7321 36.1467 33.7321H34.2236V38.3779H36.1597C37.1898 38.3779 37.8278 37.9203 37.8278 37.0032C37.8278 36.5206 37.6108 36.1699 37.2228 35.9741L37.2218 35.9731ZM35.1077 34.5274H36.1647C36.6348 34.5274 36.8588 34.7252 36.8588 35.0499C36.8588 35.3676 36.6548 35.6034 36.1787 35.6034H35.1087L35.1077 34.5274ZM36.1707 37.5686H35.1077V36.4097H36.1327C36.6998 36.4097 36.9168 36.6195 36.9168 36.9822C36.9168 37.3448 36.6618 37.5676 36.1707 37.5676V37.5686ZM38.6859 38.3779H41.8131V37.5257H39.583V36.4696H41.8131V35.6234H39.583V34.5773H41.8131V33.7311H38.6859V38.3779ZM46.0413 33.7321H42.5831V34.5594H43.8762V38.3759H44.7613V34.5594H46.0413V33.7321ZM48.4485 33.7321H47.5634L45.8053 38.3779H46.7294L47.0344 37.5317H48.9775L49.2825 38.3779H50.2066L48.4485 33.7321ZM47.3344 36.7164L48.0095 34.8711L48.6775 36.7164H47.3344Z" fill="#20123A"/>
<defs>
<linearGradient id="paint0_linear_89_44" x1="44.1958" y1="3.82195" x2="5.32931" y2="50.9443" gradientUnits="userSpaceOnUse">
<stop stop-color="#88FFD1"/>
<stop offset="0.04" stop-color="#7BFCD6"/>
<stop offset="0.13" stop-color="#57F3E2"/>
<stop offset="0.24" stop-color="#1EE5F5"/>
<stop offset="0.29" stop-color="#00DDFF"/>
<stop offset="1" stop-color="#9059FF"/>
</linearGradient>
<linearGradient id="paint1_linear_89_44" x1="15.5165" y1="8.75398" x2="39.3084" y2="49.9603" gradientUnits="userSpaceOnUse">
<stop stop-opacity="0.2"/>
<stop offset="0.79" stop-opacity="0.05"/>
</linearGradient>
<linearGradient id="paint2_linear_89_44" x1="35.8509" y1="13.9955" x2="15.8941" y2="40.0527" gradientUnits="userSpaceOnUse">
<stop stop-color="#88FFD1"/>
<stop offset="0.04" stop-color="#7BFCD6"/>
<stop offset="0.13" stop-color="#57F3E2"/>
<stop offset="0.24" stop-color="#1EE5F5"/>
<stop offset="0.29" stop-color="#00DDFF"/>
<stop offset="1" stop-color="#9059FF"/>
</linearGradient>
<linearGradient id="paint3_linear_89_44" x1="35.8509" y1="13.9955" x2="15.8941" y2="40.0527" gradientUnits="userSpaceOnUse">
<stop stop-color="#88FFD1"/>
<stop offset="0.04" stop-color="#7BFCD6"/>
<stop offset="0.13" stop-color="#57F3E2"/>
<stop offset="0.24" stop-color="#1EE5F5"/>
<stop offset="0.29" stop-color="#00DDFF"/>
<stop offset="1" stop-color="#9059FF"/>
</linearGradient>
<linearGradient id="paint4_linear_89_44" x1="35.8509" y1="13.9955" x2="15.8941" y2="40.0527" gradientUnits="userSpaceOnUse">
<stop stop-color="#88FFD1"/>
<stop offset="0.04" stop-color="#7BFCD6"/>
<stop offset="0.13" stop-color="#57F3E2"/>
<stop offset="0.24" stop-color="#1EE5F5"/>
<stop offset="0.29" stop-color="#00DDFF"/>
<stop offset="1" stop-color="#9059FF"/>
</linearGradient>
<linearGradient id="paint5_linear_89_44" x1="35.8509" y1="13.9955" x2="15.8941" y2="40.0527" gradientUnits="userSpaceOnUse">
<stop stop-color="#88FFD1"/>
<stop offset="0.04" stop-color="#7BFCD6"/>
<stop offset="0.13" stop-color="#57F3E2"/>
<stop offset="0.24" stop-color="#1EE5F5"/>
<stop offset="0.29" stop-color="#00DDFF"/>
<stop offset="1" stop-color="#9059FF"/>
</linearGradient>
<linearGradient id="paint6_linear_89_44" x1="35.8509" y1="13.9955" x2="15.8941" y2="40.0527" gradientUnits="userSpaceOnUse">
<stop stop-color="#88FFD1"/>
<stop offset="0.04" stop-color="#7BFCD6"/>
<stop offset="0.13" stop-color="#57F3E2"/>
<stop offset="0.24" stop-color="#1EE5F5"/>
<stop offset="0.29" stop-color="#00DDFF"/>
<stop offset="1" stop-color="#9059FF"/>
</linearGradient>
<linearGradient id="paint7_linear_89_44" x1="35.8509" y1="13.9955" x2="15.8941" y2="40.0527" gradientUnits="userSpaceOnUse">
<stop stop-color="#88FFD1"/>
<stop offset="0.04" stop-color="#7BFCD6"/>
<stop offset="0.13" stop-color="#57F3E2"/>
<stop offset="0.24" stop-color="#1EE5F5"/>
<stop offset="0.29" stop-color="#00DDFF"/>
<stop offset="1" stop-color="#9059FF"/>
</linearGradient>
<linearGradient id="paint8_linear_89_44" x1="35.8509" y1="13.9955" x2="15.8941" y2="40.0527" gradientUnits="userSpaceOnUse">
<stop stop-color="#88FFD1"/>
<stop offset="0.04" stop-color="#7BFCD6"/>
<stop offset="0.13" stop-color="#57F3E2"/>
<stop offset="0.24" stop-color="#1EE5F5"/>
<stop offset="0.29" stop-color="#00DDFF"/>
<stop offset="1" stop-color="#9059FF"/>
</linearGradient>
<linearGradient id="paint9_linear_89_44" x1="35.8509" y1="13.9955" x2="15.8941" y2="40.0527" gradientUnits="userSpaceOnUse">
<stop stop-color="#88FFD1"/>
<stop offset="0.04" stop-color="#7BFCD6"/>
<stop offset="0.13" stop-color="#57F3E2"/>
<stop offset="0.24" stop-color="#1EE5F5"/>
<stop offset="0.29" stop-color="#00DDFF"/>
<stop offset="1" stop-color="#9059FF"/>
</linearGradient>
<linearGradient id="paint10_linear_89_44" x1="32.637" y1="31.3482" x2="54.5844" y2="40.6298" gradientUnits="userSpaceOnUse">
<stop stop-color="#54FFBD"/>
<stop offset="1" stop-color="#00DDFF"/>
</linearGradient>
</defs>
</svg>
